<svg height="480pt" viewBox="0 0 480 480" width="480pt" xmlns="http://www.w3.org/2000/svg"><g fill="#231f20"><path d="m264 239.199219 24 41.601562c1.074219 1.824219 2.832031 3.148438 4.878906 3.679688 2.054688.550781 4.242188.261719 6.082032-.800781l21.039062-12.238282v24.558594c0 4.417969 3.582031 8 8 8h48c4.417969 0 8-3.582031 8-8v-24.558594l21.28125 12.238282c1.839844 1.0625 4.027344 1.351562 6.078125.800781 1.960937-.589844 3.621094-1.90625 4.640625-3.679688l24-41.601562c2.171875-3.824219.847656-8.683594-2.960938-10.878907l-21.039062-12.320312c0-1.761719 0-3.441406 0-5.121094-.351562-4.417968-4.222656-7.710937-8.640625-7.359375-4.417969.355469-7.710937 4.222657-7.359375 8.640625.347656 2.65625.347656 5.34375 0 8-.253906 3.09375 1.304688 6.058594 4 7.601563l18.558594 10.71875-16 27.679687-18.558594-10.71875c-2.59375-1.621094-5.886719-1.621094-8.480469 0-2.144531 1.441406-4.390625 2.722656-6.71875 3.839844-2.777343 1.320312-4.550781 4.121094-4.5625 7.199219v21.519531h-32.238281v-21.441406c-.007812-3.074219-1.78125-5.875-4.558594-7.199219-2.332031-1.113281-4.578125-2.398437-6.722656-3.839844-2.59375-1.621093-5.882812-1.621093-8.480469 0l-18.558593 10.71875-16-27.679687 18.558593-10.71875c2.695313-1.542969 4.257813-4.503906 4-7.601563-.347656-2.652343-.347656-5.34375 0-8 .257813-3.09375-1.304687-6.054687-4-7.597656l-18.558593-10.71875 16-27.683594 18.558593 10.722657c2.671875 1.5 5.964844 1.34375 8.480469-.402344 2.144531-1.441406 4.390625-2.722656 6.722656-3.839844 2.777344-1.320312 4.550782-4.121094 4.558594-7.199219v-21.519531h32v21.441406c.007812 3.074219 1.78125 5.875 4.558594 7.199219 2.332031 1.113281 4.578125 2.398437 6.722656 3.839844 2.515625 1.746093 5.808594 1.902343 8.480469.398437l18.558593-10.71875 20 34.640625c2.207032 3.84375 7.117188 5.167969 10.960938 2.960938 3.84375-2.210938 5.167969-7.117188 2.957031-10.960938l-24-41.601562c-1.074219-1.824219-2.828125-3.148438-4.878906-3.679688-2.050781-.550781-4.238281-.261719-6.078125.800781l-21.28125 12.238282v-24.558594c0-4.417969-3.582031-8-8-8h-48c-4.417969 0-8 3.582031-8 8v24.558594l-21.28125-12.238282c-1.839844-1.0625-4.027344-1.351562-6.078125-.800781-2.050781.53125-3.804687 1.855469-4.878906 3.679688l-24 41.601562c-2.171875 3.824219-.851563 8.683594 2.957031 10.878907l21.28125 12.320312-21.28125 12.320312c-3.722656 2.277344-4.929688 7.117188-2.71875 10.878907zm0 0"/><path d="m352 184c-17.671875 0-32 14.328125-32 32s14.328125 32 32 32 32-14.328125 32-32-14.328125-32-32-32zm0 48c-8.835938 0-16-7.164062-16-16s7.164062-16 16-16 16 7.164062 16 16-7.164062 16-16 16zm0 0"/><path d="m42.320312 373.039062 56.558594 56.5625c1.511719 1.496094 3.554688 2.332032 5.679688 2.320313 2.128906.011719 4.171875-.824219 5.679687-2.320313l22.640625-22.640624c3.101563-3.121094 3.101563-8.160157 0-11.28125l-28.320312-28.320313 28.320312-28.238281c1.515625-1.503906 2.367188-3.546875 2.367188-5.679688 0-2.132812-.851563-4.179687-2.367188-5.679687l-22.640625-22.640625c-1.507812-1.5-3.550781-2.332032-5.679687-2.320313-2.117188.027344-4.144532.855469-5.679688 2.320313l-56.558594 56.558594c-1.515624 1.503906-2.367187 3.546874-2.367187 5.679687s.851563 4.179687 2.367187 5.679687zm62.238282-50.960937 11.363281 11.363281-27.921875 28.238282c-1.515625 1.503906-2.367188 3.546874-2.367188 5.679687s.851563 4.179687 2.367188 5.679687l28.320312 28.242188-11.359374 11.359375-45.679688-45.28125zm0 0"/><path d="m235.121094 406.960938 22.640625 22.640624c1.507812 1.496094 3.550781 2.332032 5.679687 2.320313 2.125.011719 4.167969-.824219 5.679688-2.320313l56.558594-56.5625c1.515624-1.5 2.367187-3.546874 2.367187-5.679687s-.851563-4.175781-2.367187-5.679687l-56.558594-56.558594c-1.503906-1.515625-3.546875-2.367188-5.679688-2.367188-2.132812 0-4.179687.851563-5.679687 2.367188l-22.640625 22.878906c-1.515625 1.503906-2.367188 3.546875-2.367188 5.679688 0 2.132812.851563 4.179687 2.367188 5.679687l28.320312 28.242187-28.320312 28.320313c-2.945313 3.089844-2.945313 7.949219 0 11.039063zm45.277344-33.921876c1.515624-1.5 2.367187-3.546874 2.367187-5.679687s-.851563-4.175781-2.367187-5.679687l-28.320313-28.238282 11.363281-11.363281 45.277344 45.28125-45.277344 45.28125-11.363281-11.359375zm0 0"/><path d="m150.078125 442.320312 31.523437 5.679688c.476563.078125.960938.078125 1.4375 0 3.9375.058594 7.332032-2.757812 8-6.640625l8.480469-48c.75-4.417969-2.222656-8.609375-6.640625-9.359375-4.417968-.75-8.609375 2.222656-9.359375 6.640625l-7.121093 40-16-2.800781 22.242187-126 16 2.71875-9.519531 54c-.753906 4.417968 2.21875 8.609375 6.640625 9.363281 4.417969.75 8.605469-2.222656 9.359375-6.640625l10.878906-61.679688c.386719-2.09375-.074219-4.25-1.28125-6-1.226562-1.742187-3.097656-2.925781-5.199219-3.28125l-31.519531-5.601562c-4.351562-.722656-8.464844 2.210938-9.199219 6.5625l-24.800781 141.757812c-.796875 4.226563 1.890625 8.324219 6.078125 9.28125zm0 0"/><path d="m56 192c4.417969 0 8-3.582031 8-8v-32c0-4.417969-3.582031-8-8-8s-8 3.582031-8 8v32c0 4.417969 3.582031 8 8 8zm0 0"/><path d="m104 192c13.253906 0 24-10.746094 24-24s-10.746094-24-24-24-24 10.746094-24 24 10.746094 24 24 24zm0-32c4.417969 0 8 3.582031 8 8s-3.582031 8-8 8-8-3.582031-8-8 3.582031-8 8-8zm0 0"/><path d="m160 184v-32c0-4.417969-3.582031-8-8-8s-8 3.582031-8 8v32c0 4.417969 3.582031 8 8 8s8-3.582031 8-8zm0 0"/><path d="m200 144c-13.253906 0-24 10.746094-24 24s10.746094 24 24 24 24-10.746094 24-24-10.746094-24-24-24zm0 32c-4.417969 0-8-3.582031-8-8s3.582031-8 8-8 8 3.582031 8 8-3.582031 8-8 8zm0 0"/><path d="m48 248c0 4.417969 3.582031 8 8 8s8-3.582031 8-8v-32c0-4.417969-3.582031-8-8-8s-8 3.582031-8 8zm0 0"/><path d="m104 256c4.417969 0 8-3.582031 8-8s-3.582031-8-8-8-8-3.582031-8-8 3.582031-8 8-8 8 3.582031 8 8 3.582031 8 8 8 8-3.582031 8-8c0-13.253906-10.746094-24-24-24s-24 10.746094-24 24 10.746094 24 24 24zm0 0"/><path d="m208 216v32c0 4.417969 3.582031 8 8 8s8-3.582031 8-8v-32c0-4.417969-3.582031-8-8-8s-8 3.582031-8 8zm0 0"/><path d="m168 256c13.253906 0 24-10.746094 24-24s-10.746094-24-24-24-24 10.746094-24 24 10.746094 24 24 24zm0-32c4.417969 0 8 3.582031 8 8s-3.582031 8-8 8-8-3.582031-8-8 3.582031-8 8-8zm0 0"/><path d="m472 280c-4.417969 0-8 3.582031-8 8v176h-448v-120c0-4.417969-3.582031-8-8-8s-8 3.582031-8 8v128c0 4.417969 3.582031 8 8 8h464c4.417969 0 8-3.582031 8-8v-184c0-4.417969-3.582031-8-8-8zm0 0"/><path d="m472 0h-464c-4.417969 0-8 3.582031-8 8v304c0 4.417969 3.582031 8 8 8s8-3.582031 8-8v-200h448v144c0 4.417969 3.582031 8 8 8s8-3.582031 8-8v-248c0-4.417969-3.582031-8-8-8zm-456 16h448v80h-448zm0 0"/><path d="m440 48c4.417969 0 8-3.582031 8-8s-3.582031-8-8-8h-200c-4.417969 0-8 3.582031-8 8v32c0 4.417969 3.582031 8 8 8h200c4.417969 0 8-3.582031 8-8s-3.582031-8-8-8h-192v-16zm0 0"/><path d="m56 32c-13.253906 0-24 10.746094-24 24s10.746094 24 24 24 24-10.746094 24-24-10.746094-24-24-24zm0 32c-4.417969 0-8-3.582031-8-8s3.582031-8 8-8 8 3.582031 8 8-3.582031 8-8 8zm0 0"/><path d="m120 32c-13.253906 0-24 10.746094-24 24s10.746094 24 24 24c4.417969 0 8-3.582031 8-8s-3.582031-8-8-8-8-3.582031-8-8 3.582031-8 8-8 8 3.582031 8 8 3.582031 8 8 8 8-3.582031 8-8c0-13.253906-10.746094-24-24-24zm0 0"/><path d="m184 32c-13.253906 0-24 10.746094-24 24s10.746094 24 24 24 24-10.746094 24-24-10.746094-24-24-24zm0 32c-4.417969 0-8-3.582031-8-8s3.582031-8 8-8 8 3.582031 8 8-3.582031 8-8 8zm0 0"/></g></svg>